<?xml version="1.0" encoding="UTF-8" standalone="no"?>
<svg
   width="360mm"
   height="100mm"
   viewBox="-20 -20 380 70"
   version="1.1"
   xmlns="http://www.w3.org/2000/svg"
   xmlns:svg="http://www.w3.org/2000/svg">

   <rect x="-20" y="-20" width="400" height="90" style="fill:#7F7F7FFF" />
    <g
      text-anchor="middle"
      style="font-weight:900;font-size:9.525px;font-family:Timmana;-inkscape-font-specification:'Timmana, Heavy';stroke-width:0.0132292;stroke-linecap:round;stroke-linejoin:round"
    >

<text
    style="fill:#000000FF;stroke:#000000FF"
    x="0"
    y="29"
    >0</text>
<rect
    width="1.0"
    height="20.0"
    style="fill:#FFFFFFFF;stroke:#FFFFFFFF"
    x="0"
    y="0" />
<rect
     width="1.0"
     height="5.0"
     style="fill:#FFFFFFFF;stroke:#FFFFFFFF"
     x="5"
     y="0" />
<rect
     width="1.0"
     height="5.0"
     style="fill:#FFFFFFFF;stroke:#FFFFFFFF"
     x="10"
     y="0" />
<rect
    width="1.0"
    height="10.0"
    style="fill:#FFFFFFFF;stroke:#FFFFFFFF"
    x="15"
    y="0" />
<rect
     width="1.0"
     height="5.0"
     style="fill:#FFFFFFFF;stroke:#FFFFFFFF"
     x="20"
     y="0" />
<rect
     width="1.0"
     height="5.0"
     style="fill:#FFFFFFFF;stroke:#FFFFFFFF"
     x="25"
     y="0" />
<text
    style="fill:#000000FF;stroke:#000000FF"
    x="30"
    y="29"
    >30</text>
<rect
    width="1.0"
    height="20.0"
    style="fill:#FFFFFFFF;stroke:#FFFFFFFF"
    x="30"
    y="0" />
<rect
     width="1.0"
     height="5.0"
     style="fill:#FFFFFFFF;stroke:#FFFFFFFF"
     x="35"
     y="0" />
<rect
     width="1.0"
     height="5.0"
     style="fill:#FFFFFFFF;stroke:#FFFFFFFF"
     x="40"
     y="0" />
<rect
    width="1.0"
    height="10.0"
    style="fill:#FFFFFFFF;stroke:#FFFFFFFF"
    x="45"
    y="0" />
<rect
     width="1.0"
     height="5.0"
     style="fill:#FFFFFFFF;stroke:#FFFFFFFF"
     x="50"
     y="0" />
<rect
     width="1.0"
     height="5.0"
     style="fill:#FFFFFFFF;stroke:#FFFFFFFF"
     x="55"
     y="0" />
<text
    style="fill:#000000FF;stroke:#000000FF"
    x="60"
    y="29"
    >60</text>
<rect
    width="1.0"
    height="20.0"
    style="fill:#FFFFFFFF;stroke:#FFFFFFFF"
    x="60"
    y="0" />
<rect
     width="1.0"
     height="5.0"
     style="fill:#FFFFFFFF;stroke:#FFFFFFFF"
     x="65"
     y="0" />
<rect
     width="1.0"
     height="5.0"
     style="fill:#FFFFFFFF;stroke:#FFFFFFFF"
     x="70"
     y="0" />
<rect
    width="1.0"
    height="10.0"
    style="fill:#FFFFFFFF;stroke:#FFFFFFFF"
    x="75"
    y="0" />
<rect
     width="1.0"
     height="5.0"
     style="fill:#FFFFFFFF;stroke:#FFFFFFFF"
     x="80"
     y="0" />
<rect
     width="1.0"
     height="5.0"
     style="fill:#FFFFFFFF;stroke:#FFFFFFFF"
     x="85"
     y="0" />
<text
    style="fill:#000000FF;stroke:#000000FF"
    x="90"
    y="29"
    >90</text>
<rect
    width="1.0"
    height="20.0"
    style="fill:#FFFFFFFF;stroke:#FFFFFFFF"
    x="90"
    y="0" />
<rect
     width="1.0"
     height="5.0"
     style="fill:#FFFFFFFF;stroke:#FFFFFFFF"
     x="95"
     y="0" />
<rect
     width="1.0"
     height="5.0"
     style="fill:#FFFFFFFF;stroke:#FFFFFFFF"
     x="100"
     y="0" />
<rect
    width="1.0"
    height="10.0"
    style="fill:#FFFFFFFF;stroke:#FFFFFFFF"
    x="105"
    y="0" />
<rect
     width="1.0"
     height="5.0"
     style="fill:#FFFFFFFF;stroke:#FFFFFFFF"
     x="110"
     y="0" />
<rect
     width="1.0"
     height="5.0"
     style="fill:#FFFFFFFF;stroke:#FFFFFFFF"
     x="115"
     y="0" />
<text
    style="fill:#000000FF;stroke:#000000FF"
    x="120"
    y="29"
    >120</text>
<rect
    width="1.0"
    height="20.0"
    style="fill:#FFFFFFFF;stroke:#FFFFFFFF"
    x="120"
    y="0" />
<rect
     width="1.0"
     height="5.0"
     style="fill:#FFFFFFFF;stroke:#FFFFFFFF"
     x="125"
     y="0" />
<rect
     width="1.0"
     height="5.0"
     style="fill:#FFFFFFFF;stroke:#FFFFFFFF"
     x="130"
     y="0" />
<rect
    width="1.0"
    height="10.0"
    style="fill:#FFFFFFFF;stroke:#FFFFFFFF"
    x="135"
    y="0" />
<rect
     width="1.0"
     height="5.0"
     style="fill:#FFFFFFFF;stroke:#FFFFFFFF"
     x="140"
     y="0" />
<rect
     width="1.0"
     height="5.0"
     style="fill:#FFFFFFFF;stroke:#FFFFFFFF"
     x="145"
     y="0" />
<text
    style="fill:#000000FF;stroke:#000000FF"
    x="150"
    y="29"
    >150</text>
<rect
    width="1.0"
    height="20.0"
    style="fill:#FFFFFFFF;stroke:#FFFFFFFF"
    x="150"
    y="0" />
<rect
     width="1.0"
     height="5.0"
     style="fill:#FFFFFFFF;stroke:#FFFFFFFF"
     x="155"
     y="0" />
<rect
     width="1.0"
     height="5.0"
     style="fill:#FFFFFFFF;stroke:#FFFFFFFF"
     x="160"
     y="0" />
<rect
    width="1.0"
    height="10.0"
    style="fill:#FFFFFFFF;stroke:#FFFFFFFF"
    x="165"
    y="0" />
<rect
     width="1.0"
     height="5.0"
     style="fill:#FFFFFFFF;stroke:#FFFFFFFF"
     x="170"
     y="0" />
<rect
     width="1.0"
     height="5.0"
     style="fill:#FFFFFFFF;stroke:#FFFFFFFF"
     x="175"
     y="0" />
<text
    style="fill:#000000FF;stroke:#000000FF"
    x="180"
    y="29"
    >180</text>
<rect
    width="1.0"
    height="20.0"
    style="fill:#FFFFFFFF;stroke:#FFFFFFFF"
    x="180"
    y="0" />
<rect
     width="1.0"
     height="5.0"
     style="fill:#FFFFFFFF;stroke:#FFFFFFFF"
     x="185"
     y="0" />
<rect
     width="1.0"
     height="5.0"
     style="fill:#FFFFFFFF;stroke:#FFFFFFFF"
     x="190"
     y="0" />
<rect
    width="1.0"
    height="10.0"
    style="fill:#FFFFFFFF;stroke:#FFFFFFFF"
    x="195"
    y="0" />
<rect
     width="1.0"
     height="5.0"
     style="fill:#FFFFFFFF;stroke:#FFFFFFFF"
     x="200"
     y="0" />
<rect
     width="1.0"
     height="5.0"
     style="fill:#FFFFFFFF;stroke:#FFFFFFFF"
     x="205"
     y="0" />
<text
    style="fill:#000000FF;stroke:#000000FF"
    x="210"
    y="29"
    >210</text>
<rect
    width="1.0"
    height="20.0"
    style="fill:#FFFFFFFF;stroke:#FFFFFFFF"
    x="210"
    y="0" />
<rect
     width="1.0"
     height="5.0"
     style="fill:#FFFFFFFF;stroke:#FFFFFFFF"
     x="215"
     y="0" />
<rect
     width="1.0"
     height="5.0"
     style="fill:#FFFFFFFF;stroke:#FFFFFFFF"
     x="220"
     y="0" />
<rect
    width="1.0"
    height="10.0"
    style="fill:#FFFFFFFF;stroke:#FFFFFFFF"
    x="225"
    y="0" />
<rect
     width="1.0"
     height="5.0"
     style="fill:#FFFFFFFF;stroke:#FFFFFFFF"
     x="230"
     y="0" />
<rect
     width="1.0"
     height="5.0"
     style="fill:#FFFFFFFF;stroke:#FFFFFFFF"
     x="235"
     y="0" />
<text
    style="fill:#000000FF;stroke:#000000FF"
    x="240"
    y="29"
    >240</text>
<rect
    width="1.0"
    height="20.0"
    style="fill:#FFFFFFFF;stroke:#FFFFFFFF"
    x="240"
    y="0" />
<rect
     width="1.0"
     height="5.0"
     style="fill:#FFFFFFFF;stroke:#FFFFFFFF"
     x="245"
     y="0" />
<rect
     width="1.0"
     height="5.0"
     style="fill:#FFFFFFFF;stroke:#FFFFFFFF"
     x="250"
     y="0" />
<rect
    width="1.0"
    height="10.0"
    style="fill:#FFFFFFFF;stroke:#FFFFFFFF"
    x="255"
    y="0" />
<rect
     width="1.0"
     height="5.0"
     style="fill:#FFFFFFFF;stroke:#FFFFFFFF"
     x="260"
     y="0" />
<rect
     width="1.0"
     height="5.0"
     style="fill:#FFFFFFFF;stroke:#FFFFFFFF"
     x="265"
     y="0" />
<text
    style="fill:#000000FF;stroke:#000000FF"
    x="270"
    y="29"
    >270</text>
<rect
    width="1.0"
    height="20.0"
    style="fill:#FFFFFFFF;stroke:#FFFFFFFF"
    x="270"
    y="0" />
<rect
     width="1.0"
     height="5.0"
     style="fill:#FFFFFFFF;stroke:#FFFFFFFF"
     x="275"
     y="0" />
<rect
     width="1.0"
     height="5.0"
     style="fill:#FFFFFFFF;stroke:#FFFFFFFF"
     x="280"
     y="0" />
<rect
    width="1.0"
    height="10.0"
    style="fill:#FFFFFFFF;stroke:#FFFFFFFF"
    x="285"
    y="0" />
<rect
     width="1.0"
     height="5.0"
     style="fill:#FFFFFFFF;stroke:#FFFFFFFF"
     x="290"
     y="0" />
<rect
     width="1.0"
     height="5.0"
     style="fill:#FFFFFFFF;stroke:#FFFFFFFF"
     x="295"
     y="0" />
<text
    style="fill:#000000FF;stroke:#000000FF"
    x="300"
    y="29"
    >300</text>
<rect
    width="1.0"
    height="20.0"
    style="fill:#FFFFFFFF;stroke:#FFFFFFFF"
    x="300"
    y="0" />
<rect
     width="1.0"
     height="5.0"
     style="fill:#FFFFFFFF;stroke:#FFFFFFFF"
     x="305"
     y="0" />
<rect
     width="1.0"
     height="5.0"
     style="fill:#FFFFFFFF;stroke:#FFFFFFFF"
     x="310"
     y="0" />
<rect
    width="1.0"
    height="10.0"
    style="fill:#FFFFFFFF;stroke:#FFFFFFFF"
    x="315"
    y="0" />
<rect
     width="1.0"
     height="5.0"
     style="fill:#FFFFFFFF;stroke:#FFFFFFFF"
     x="320"
     y="0" />
<rect
     width="1.0"
     height="5.0"
     style="fill:#FFFFFFFF;stroke:#FFFFFFFF"
     x="325"
     y="0" />
<text
    style="fill:#000000FF;stroke:#000000FF"
    x="330"
    y="29"
    >330</text>
<rect
    width="1.0"
    height="20.0"
    style="fill:#FFFFFFFF;stroke:#FFFFFFFF"
    x="330"
    y="0" />
<rect
     width="1.0"
     height="5.0"
     style="fill:#FFFFFFFF;stroke:#FFFFFFFF"
     x="335"
     y="0" />
<rect
     width="1.0"
     height="5.0"
     style="fill:#FFFFFFFF;stroke:#FFFFFFFF"
     x="340"
     y="0" />
<rect
    width="1.0"
    height="10.0"
    style="fill:#FFFFFFFF;stroke:#FFFFFFFF"
    x="345"
    y="0" />
<rect
     width="1.0"
     height="5.0"
     style="fill:#FFFFFFFF;stroke:#FFFFFFFF"
     x="350"
     y="0" />
<rect
     width="1.0"
     height="5.0"
     style="fill:#FFFFFFFF;stroke:#FFFFFFFF"
     x="355"
     y="0" />
</g>

</svg>
