<?xml version="1.0" encoding="UTF-8" standalone="no"?>
<svg
   width="1200px"
   height="120px"
   viewBox="-3 0 357 36"
   version="1.1"
   xmlns="http://www.w3.org/2000/svg"
   xmlns:svg="http://www.w3.org/2000/svg">

    <g
      text-anchor="middle"
      style="font-weight:900;font-size:9.525px;font-family:Timmana;-inkscape-font-specification:'Timmana, Heavy';stroke-width:0.0132292;stroke-linecap:round;stroke-linejoin:round"
    >

<text
    fill="black" stroke="black"
    x="0"
    y="29"
    >0</text>
<rect
    width="1.0"
    height="20.0"
    fill="white" stroke="white"
    x="0"
    y="0" />
<rect
     width="1.0"
     height="5.0"
     fill="white" stroke="white"
     x="5"
     y="0" />
<rect
     width="1.0"
     height="5.0"
     fill="white" stroke="white"
     x="10"
     y="0" />
<rect
    width="1.0"
    height="10.0"
    fill="white" stroke="white"
    x="15"
    y="0" />
<rect
     width="1.0"
     height="5.0"
     fill="white" stroke="white"
     x="20"
     y="0" />
<rect
     width="1.0"
     height="5.0"
     fill="white" stroke="white"
     x="25"
     y="0" />
<text
    fill="black" stroke="black"
    x="30"
    y="29"
    >30</text>
<rect
    width="1.0"
    height="20.0"
    fill="white" stroke="white"
    x="30"
    y="0" />
<rect
     width="1.0"
     height="5.0"
     fill="white" stroke="white"
     x="35"
     y="0" />
<rect
     width="1.0"
     height="5.0"
     fill="white" stroke="white"
     x="40"
     y="0" />
<rect
    width="1.0"
    height="10.0"
    fill="white" stroke="white"
    x="45"
    y="0" />
<rect
     width="1.0"
     height="5.0"
     fill="white" stroke="white"
     x="50"
     y="0" />
<rect
     width="1.0"
     height="5.0"
     fill="white" stroke="white"
     x="55"
     y="0" />
<text
    fill="black" stroke="black"
    x="60"
    y="29"
    >60</text>
<rect
    width="1.0"
    height="20.0"
    fill="white" stroke="white"
    x="60"
    y="0" />
<rect
     width="1.0"
     height="5.0"
     fill="white" stroke="white"
     x="65"
     y="0" />
<rect
     width="1.0"
     height="5.0"
     fill="white" stroke="white"
     x="70"
     y="0" />
<rect
    width="1.0"
    height="10.0"
    fill="white" stroke="white"
    x="75"
    y="0" />
<rect
     width="1.0"
     height="5.0"
     fill="white" stroke="white"
     x="80"
     y="0" />
<rect
     width="1.0"
     height="5.0"
     fill="white" stroke="white"
     x="85"
     y="0" />
<text
    fill="black" stroke="black"
    x="90"
    y="29"
    >90</text>
<rect
    width="1.0"
    height="20.0"
    fill="white" stroke="white"
    x="90"
    y="0" />
<rect
     width="1.0"
     height="5.0"
     fill="white" stroke="white"
     x="95"
     y="0" />
<rect
     width="1.0"
     height="5.0"
     fill="white" stroke="white"
     x="100"
     y="0" />
<rect
    width="1.0"
    height="10.0"
    fill="white" stroke="white"
    x="105"
    y="0" />
<rect
     width="1.0"
     height="5.0"
     fill="white" stroke="white"
     x="110"
     y="0" />
<rect
     width="1.0"
     height="5.0"
     fill="white" stroke="white"
     x="115"
     y="0" />
<text
    fill="black" stroke="black"
    x="120"
    y="29"
    >120</text>
<rect
    width="1.0"
    height="20.0"
    fill="white" stroke="white"
    x="120"
    y="0" />
<rect
     width="1.0"
     height="5.0"
     fill="white" stroke="white"
     x="125"
     y="0" />
<rect
     width="1.0"
     height="5.0"
     fill="white" stroke="white"
     x="130"
     y="0" />
<rect
    width="1.0"
    height="10.0"
    fill="white" stroke="white"
    x="135"
    y="0" />
<rect
     width="1.0"
     height="5.0"
     fill="white" stroke="white"
     x="140"
     y="0" />
<rect
     width="1.0"
     height="5.0"
     fill="white" stroke="white"
     x="145"
     y="0" />
<text
    fill="black" stroke="black"
    x="150"
    y="29"
    >150</text>
<rect
    width="1.0"
    height="20.0"
    fill="white" stroke="white"
    x="150"
    y="0" />
<rect
     width="1.0"
     height="5.0"
     fill="white" stroke="white"
     x="155"
     y="0" />
<rect
     width="1.0"
     height="5.0"
     fill="white" stroke="white"
     x="160"
     y="0" />
<rect
    width="1.0"
    height="10.0"
    fill="white" stroke="white"
    x="165"
    y="0" />
<rect
     width="1.0"
     height="5.0"
     fill="white" stroke="white"
     x="170"
     y="0" />
<rect
     width="1.0"
     height="5.0"
     fill="white" stroke="white"
     x="175"
     y="0" />
<text
    fill="black" stroke="black"
    x="180"
    y="29"
    >180</text>
<rect
    width="1.0"
    height="20.0"
    fill="white" stroke="white"
    x="180"
    y="0" />
<rect
     width="1.0"
     height="5.0"
     fill="white" stroke="white"
     x="185"
     y="0" />
<rect
     width="1.0"
     height="5.0"
     fill="white" stroke="white"
     x="190"
     y="0" />
<rect
    width="1.0"
    height="10.0"
    fill="white" stroke="white"
    x="195"
    y="0" />
<rect
     width="1.0"
     height="5.0"
     fill="white" stroke="white"
     x="200"
     y="0" />
<rect
     width="1.0"
     height="5.0"
     fill="white" stroke="white"
     x="205"
     y="0" />
<text
    fill="black" stroke="black"
    x="210"
    y="29"
    >210</text>
<rect
    width="1.0"
    height="20.0"
    fill="white" stroke="white"
    x="210"
    y="0" />
<rect
     width="1.0"
     height="5.0"
     fill="white" stroke="white"
     x="215"
     y="0" />
<rect
     width="1.0"
     height="5.0"
     fill="white" stroke="white"
     x="220"
     y="0" />
<rect
    width="1.0"
    height="10.0"
    fill="white" stroke="white"
    x="225"
    y="0" />
<rect
     width="1.0"
     height="5.0"
     fill="white" stroke="white"
     x="230"
     y="0" />
<rect
     width="1.0"
     height="5.0"
     fill="white" stroke="white"
     x="235"
     y="0" />
<text
    fill="black" stroke="black"
    x="240"
    y="29"
    >240</text>
<rect
    width="1.0"
    height="20.0"
    fill="white" stroke="white"
    x="240"
    y="0" />
<rect
     width="1.0"
     height="5.0"
     fill="white" stroke="white"
     x="245"
     y="0" />
<rect
     width="1.0"
     height="5.0"
     fill="white" stroke="white"
     x="250"
     y="0" />
<rect
    width="1.0"
    height="10.0"
    fill="white" stroke="white"
    x="255"
    y="0" />
<rect
     width="1.0"
     height="5.0"
     fill="white" stroke="white"
     x="260"
     y="0" />
<rect
     width="1.0"
     height="5.0"
     fill="white" stroke="white"
     x="265"
     y="0" />
<text
    fill="black" stroke="black"
    x="270"
    y="29"
    >270</text>
<rect
    width="1.0"
    height="20.0"
    fill="white" stroke="white"
    x="270"
    y="0" />
<rect
     width="1.0"
     height="5.0"
     fill="white" stroke="white"
     x="275"
     y="0" />
<rect
     width="1.0"
     height="5.0"
     fill="white" stroke="white"
     x="280"
     y="0" />
<rect
    width="1.0"
    height="10.0"
    fill="white" stroke="white"
    x="285"
    y="0" />
<rect
     width="1.0"
     height="5.0"
     fill="white" stroke="white"
     x="290"
     y="0" />
<rect
     width="1.0"
     height="5.0"
     fill="white" stroke="white"
     x="295"
     y="0" />
<text
    fill="black" stroke="black"
    x="300"
    y="29"
    >300</text>
<rect
    width="1.0"
    height="20.0"
    fill="white" stroke="white"
    x="300"
    y="0" />
<rect
     width="1.0"
     height="5.0"
     fill="white" stroke="white"
     x="305"
     y="0" />
<rect
     width="1.0"
     height="5.0"
     fill="white" stroke="white"
     x="310"
     y="0" />
<rect
    width="1.0"
    height="10.0"
    fill="white" stroke="white"
    x="315"
    y="0" />
<rect
     width="1.0"
     height="5.0"
     fill="white" stroke="white"
     x="320"
     y="0" />
<rect
     width="1.0"
     height="5.0"
     fill="white" stroke="white"
     x="325"
     y="0" />
<text
    fill="black" stroke="black"
    x="330"
    y="29"
    >330</text>
<rect
    width="1.0"
    height="20.0"
    fill="white" stroke="white"
    x="330"
    y="0" />
<rect
     width="1.0"
     height="5.0"
     fill="white" stroke="white"
     x="335"
     y="0" />
<rect
     width="1.0"
     height="5.0"
     fill="white" stroke="white"
     x="340"
     y="0" />
<rect
    width="1.0"
    height="10.0"
    fill="white" stroke="white"
    x="345"
    y="0" />
<rect
     width="1.0"
     height="5.0"
     fill="white" stroke="white"
     x="350"
     y="0" />
<rect
     width="1.0"
     height="5.0"
     fill="white" stroke="white"
     x="355"
     y="0" />
</g>
</svg>
