{
	"asset":{
		"generator":"Khronos glTF Blender I/O v5.0.21",
		"version":"2.0"
	},
	"scene":0,
	"scenes":[
		{
			"name":"Scene",
			"nodes":[
				0
			]
		}
	],
	"nodes":[
		{
			"mesh":0,
			"name":"NumMesh",
			"translation":[
				0,
				0.15901461243629456,
				0
			]
		}
	],
	"materials":[
		{
			"doubleSided":true,
			"name":"dakrLetter",
			"pbrMetallicRoughness":{
				"baseColorFactor":[
					0.1503484547138214,
					0.1503484547138214,
					0.1503484547138214,
					1
				],
				"metallicFactor":0,
				"roughnessFactor":0.5
			}
		},
		{
			"doubleSided":true,
			"name":"LuminiousGreen",
			"pbrMetallicRoughness":{
				"baseColorFactor":[
					0.01634272187948227,
					0.800039529800415,
					0.01736684888601303,
					1
				],
				"metallicFactor":0,
				"roughnessFactor":0.5
			}
		}
	],
	"meshes":[
		{
			"name":"Text.001",
			"primitives":[
				{
					"attributes":{
						"POSITION":0,
						"NORMAL":1,
						"TEXCOORD_0":2,
						"TANGENT":3
					},
					"indices":4,
					"material":0
				},
				{
					"attributes":{
						"POSITION":5,
						"NORMAL":6,
						"TEXCOORD_0":7,
						"TANGENT":8
					},
					"indices":9,
					"material":1
				}
			]
		}
	],
	"accessors":[
		{
			"bufferView":0,
			"componentType":5126,
			"count":6916,
			"max":[
				2.07624888420105,
				5.747549636225813e-08,
				2.2566540241241455
			],
			"min":[
				-2.2495760917663574,
				-0.15000006556510925,
				-2.2575440406799316
			],
			"type":"VEC3"
		},
		{
			"bufferView":1,
			"componentType":5126,
			"count":6916,
			"type":"VEC3"
		},
		{
			"bufferView":2,
			"componentType":5126,
			"count":6916,
			"type":"VEC2"
		},
		{
			"bufferView":3,
			"componentType":5126,
			"count":6916,
			"type":"VEC4"
		},
		{
			"bufferView":4,
			"componentType":5123,
			"count":20244,
			"type":"SCALAR"
		},
		{
			"bufferView":5,
			"componentType":5126,
			"count":1884,
			"max":[
				2.2349042892456055,
				5.029106020515428e-08,
				-0.1521921008825302
			],
			"min":[
				1.2147011756896973,
				-0.15000005066394806,
				-1.5277495384216309
			],
			"type":"VEC3"
		},
		{
			"bufferView":6,
			"componentType":5126,
			"count":1884,
			"type":"VEC3"
		},
		{
			"bufferView":7,
			"componentType":5126,
			"count":1884,
			"type":"VEC2"
		},
		{
			"bufferView":8,
			"componentType":5126,
			"count":1884,
			"type":"VEC4"
		},
		{
			"bufferView":9,
			"componentType":5123,
			"count":5616,
			"type":"SCALAR"
		}
	],
	"bufferViews":[
		{
			"buffer":0,
			"byteLength":82992,
			"byteOffset":0,
			"target":34962
		},
		{
			"buffer":0,
			"byteLength":82992,
			"byteOffset":82992,
			"target":34962
		},
		{
			"buffer":0,
			"byteLength":55328,
			"byteOffset":165984,
			"target":34962
		},
		{
			"buffer":0,
			"byteLength":110656,
			"byteOffset":221312,
			"target":34962
		},
		{
			"buffer":0,
			"byteLength":40488,
			"byteOffset":331968,
			"target":34963
		},
		{
			"buffer":0,
			"byteLength":22608,
			"byteOffset":372456,
			"target":34962
		},
		{
			"buffer":0,
			"byteLength":22608,
			"byteOffset":395064,
			"target":34962
		},
		{
			"buffer":0,
			"byteLength":15072,
			"byteOffset":417672,
			"target":34962
		},
		{
			"buffer":0,
			"byteLength":30144,
			"byteOffset":432744,
			"target":34962
		},
		{
			"buffer":0,
			"byteLength":11232,
			"byteOffset":462888,
			"target":34963
		}
	],
	"buffers":[
		{
			"byteLength":474120,
			"uri":"FlatCompass.bin"
		}
	]
}
