ply
format ascii 1.0
element vertex 20
property float x
property float y
property float z
end_header
0.82471335 0.40071666 0.93470544
0.90457207 0.8404203 1.063346
0.8857246 1.3046738 1.0870126
0.76991 1.7476174 1.003234
0.56860304 2.1252065 0.82029593
0.30215648 2.3998485 0.55674917
-0.0039551933 2.545271 0.23778978
-0.31896007 2.5465796 -0.10454514
-0.611946 2.4036531 -0.4366607
-0.8535339 2.1310887 -0.7252289
-1.0204331 1.7554475 -0.9424034
-1.0960422 1.314095 -1.0665805
-1.0729426 0.84997797 -1.0856111
-0.9534744 0.40969664 -0.9976074
-0.7491277 0.03574303 -0.81101876
-0.48011336 -0.23440315 -0.5442529
-0.17337963 -0.3738813 -0.22405174
0.141034 -0.36928406 0.11820211
0.43253648 -0.22079249 0.44923422
0.7484763 0.20072968 0.8328023
