ply
format ascii 1.0
element vertex 20
property float x
property float y
property float z
end_header
0.22380675160607225 1.4402060590311199 7.981443022470813
0.18688249598161266 5.021786871878265 14.288489318914792
-0.06846281309016815 10.382950353371573 19.16430115347232
-0.5164797138846117 16.985578647823626 22.122205936549587
-1.1091722918977287 24.134923579608294 22.870455096957265
-1.7889470506736525 31.146900011895557 21.357569847490456
-2.4858957407641395 37.3092661129651 17.756846069768848
-3.139039382881315 42.07991249225618 12.37746144932967
-3.6741660846047766 44.92201205384373 5.841068375792997
-4.046212852214126 45.6153576095575 -1.2637248279540343
-4.21961336972485 44.06568426491113 -8.313586490457032
-4.1724833185214125 40.40858194775115 -14.538526757920073
-3.9140523437783488 35.08309453561381 -19.272717782368034
-3.4653681623174344 28.50868474100481 -22.159067863072746
-2.8743651174638 21.399894094406406 -22.864912193260384
-2.1949622369674 14.405275311621375 -21.32586269748498
-1.500284069052834 8.273679089143151 -17.715521869801613
-0.8549324930824191 3.5634337894737804 -12.39335346731327
-0.3182808715692066 0.7114319011269652 -5.841933866124486
0.04175814049838038 0.0018231997882653987 0.9564186597133542
