ply
format ascii 1.0
element vertex 20
property float x
property float y
property float z
end_header
0.22416344835595076 1.452394250733037 8.01391163668644
0.18726007181885365 5.010219583852446 14.274013760436734
-0.06544148039958304 10.331488644182546 19.13051013152868
-0.5089736304570631 16.8863031947851 22.09529618027871
-1.0995354901709466 24.02755986061099 22.876015355102155
-1.7788090745695206 31.049814546226408 21.395082600647253
-2.4790342287541876 37.25361408741467 17.80231023363511
-3.131252333489164 42.03000301612149 12.455506485203381
-3.6722009054442393 44.91433921789481 5.870590627456676
-4.047390736771767 45.613540433122324 -1.294227598267281
-4.219717792718876 44.06136284424541 -8.324595466187585
-4.172622907601473 40.41266155179409 -14.533568023532132
-3.9106516662742132 35.025869578789575 -19.309358006092246
-3.459990850370694 28.43800915152849 -22.177458071577664
-2.8649631529531696 21.29560582832748 -22.85857092143439
-2.1835043743253335 14.296010754833226 -21.282546445323685
-1.4841495207810835 8.143450644611967 -17.607347508008
-0.8350251584507721 3.4366377200762566 -12.192245222222018
-0.30044579402534494 0.6430720887790358 -5.5714573559235685
0.04175814049838038 0.0018231997882653987 0.9564186597133542
