ply
format ascii 1.0
element vertex 20
property float x
property float y
property float z
end_header
0.2230896753874055 1.4163541402728916 7.91746870042407
0.1912233220560023 4.886782300795534 14.118036844674977
-0.05084321908831701 10.080709038398707 18.962988044254004
-0.4790035475380768 16.487096218603167 21.982217018789584
-1.0535651350434068 23.51194840789423 22.895642162487373
-1.718821237763075 30.470940684902548 21.60825673330836
-2.4107332684430594 36.69399448776419 18.243596916637106
-3.0627899428215937 41.58293824674447 13.125157817095571
-3.612287696387054 44.667727601854104 6.745322140292519
-4.006492710195758 45.65211914089562 -0.28406267214372005
-4.207216130404943 44.445160354904154 -7.273215359330381
-4.196085189622246 41.16421164626011 -13.568657443627615
-3.9739171319935256 36.12227505848661 -18.56422264605471
-3.561988062921394 29.803588885854793 -21.77872564613065
-2.9998665388981514 22.81499868217232 -22.903604880843016
-2.340916908618474 15.82123171940364 -21.82952881592021
-1.6486830136731172 9.49825664581635 -18.656987458744677
-0.9903569380398544 4.458992516381934 -13.695570603574488
-0.42829400190892836 1.1803604265524732 -7.415987898349345
-0.04556342860492517 -0.001989342255035695 -1.0435740863498897
